<svg 
  xmlns="http://www.w3.org/2000/svg" 
  xmlns:xlink="http://www.w3.org/1999/xlink" 
  xml:space="preserve" 
  version="1.1" 
  style="shape-rendering:geometricPrecision;text-rendering:geometricPrecision;image-rendering:optimizeQuality;" 
  viewBox="0 0 1707 1707" 
  x="0px" 
  y="50%" 
  fill-rule="evenodd" 
  clip-rule="evenodd"
>  
  <defs>
    <style type="text/css">
    .animated-face {
      transform-origin: 50% 50%;
      animation: zoomFace 5s infinite linear;
    }
    @keyframes zoomFace {
      0% {
        transform: scale (1);
      }
      50% {
        transform: scale(0.75);
      }
      100% {
        transform: scale(1);
      }
    }     
    </style>
  </defs>
    <g fill="rgba(18, 20, 23, 1)" class="animated-face" x="50%" y="50%">
      <path d="M1457 1706l-1207 0c-11,0 -20,-9 -20,-20l0 -1666c0,-11 9,-20 20,-20l946 0c5,0 10,2 14,6l261 261c4,4 6,9 6,14l0 1406c0,10 -9,19 -20,19zm-1187 -39l1167 0 0 -1377 -249 -250 -918 0 0 1627z"/>
      <path d="M1457 301l-261 0c-11,0 -20,-9 -20,-20l0 -261c0,-18 21,-26 34,-14l261 261c13,13 4,34 -14,34zm-241 -40l193 0 -193 -193 0 193z"/>
      <path d="M587 605c-82,0 -171,-79 -133,-103 35,-22 35,63 133,63 99,0 99,-85 133,-63 38,25 -51,103 -133,103z"/>
      <path d="M1119 605c-82,0 -170,-79 -133,-103 35,-22 35,63 133,63 99,0 99,-85 133,-63 38,25 -51,103 -133,103z"/>
      <path d="M997 1242c-6,0 -12,-2 -16,-7 -59,-78 -196,-78 -256,0 -16,20 -47,-4 -32,-25 76,-98 244,-98 320,0 10,13 0,32 -16,32z"/>
    </g>   
</svg>