<svg xmlns="http://www.w3.org/2000/svg" viewBox="0 0 60 75" x="0px" y="0px"><path d="M30,0A26,26,0,0,0,19.869,49.953l7.866,9.012a3,3,0,0,0,4.528,0l7.868-9.014A26,26,0,0,0,30,0Zm9.148,48.2a1,1,0,0,0-.371.267l-8.022,9.191a1.019,1.019,0,0,1-1.512,0l-8.02-9.189a1,1,0,0,0-.371-.267,24,24,0,1,1,18.3,0Z"/><path d="M30,5A21,21,0,1,0,51,26,21.024,21.024,0,0,0,30,5Zm0,40A19,19,0,1,1,49,26,19.021,19.021,0,0,1,30,45Z"/><path d="M26,23h4a2,2,0,0,0,2-2V17a2,2,0,0,0-2-2H26a2,2,0,0,0-2,2v4A2,2,0,0,0,26,23Zm0-6h4l0,4H26Z"/><path d="M39.293,14.293a1,1,0,0,0,0,1.414l.517.517-.6,4.224a2.964,2.964,0,0,0,1.623,3.086L43,24.618V30.5a1.5,1.5,0,0,1-3,0V27a3,3,0,0,0-3-3H36V14a3,3,0,0,0-3-3H23a3,3,0,0,0-3,3V34.184A3,3,0,0,0,18,37v1a2,2,0,0,0,2,2H36a2,2,0,0,0,2-2V37a3,3,0,0,0-2-2.816V26h1a1,1,0,0,1,1,1v3.5a3.5,3.5,0,0,0,7,0V20.242a4.024,4.024,0,0,0-1.172-2.828l-3.121-3.121A1,1,0,0,0,39.293,14.293ZM23,13H33a1,1,0,0,1,1,1V34H22V14A1,1,0,0,1,23,13ZM36,38H20V37a1,1,0,0,1,1-1H35a1,1,0,0,1,1,1Zm7-17.758v2.14l-1.277-.639a.972.972,0,0,1-.533-1.013l.389-2.737.835.835A2.015,2.015,0,0,1,43,20.242Z"/><text x="0" y="75" fill="#000000" font-size="5px" font-weight="bold" font-family="'Helvetica Neue', Helvetica, Arial-Unicode, Arial, Sans-serif">Created by Juicy Fish</text><text x="0" y="80" fill="#000000" font-size="5px" font-weight="bold" font-family="'Helvetica Neue', Helvetica, Arial-Unicode, Arial, Sans-serif">from the Noun Project</text></svg>