<svg xmlns="http://www.w3.org/2000/svg" data-name="Layer 1" viewBox="0 0 96 120" x="0px" y="0px"><path d="M77.737,18.263A42.054,42.054,0,1,0,18.263,77.737,42.054,42.054,0,1,0,77.737,18.263ZM48,89.026A41.026,41.026,0,1,1,89.026,48,41.072,41.072,0,0,1,48,89.026Zm26.672-67.7A37.72,37.72,0,1,0,21.328,74.672,37.72,37.72,0,1,0,74.672,21.328ZM13.908,34.436l2.684,1.111a.505.505,0,0,0,.2.039.514.514,0,0,0,.2-.989L14.3,33.486a36.82,36.82,0,0,1,7.4-11.051l2.04,2.041a.515.515,0,1,0,.728-.728l-2.041-2.04a36.82,36.82,0,0,1,11.051-7.4L34.6,16.986a.514.514,0,1,0,.95-.394l-1.111-2.684a36.487,36.487,0,0,1,13.05-2.593v2.9a.514.514,0,0,0,1.028,0v-2.9a36.487,36.487,0,0,1,13.05,2.593l-1.111,2.684a.515.515,0,0,0,.278.672.515.515,0,0,0,.672-.278L62.514,14.3a36.82,36.82,0,0,1,11.051,7.4l-2.041,2.04a.515.515,0,0,0,.728.728l2.04-2.041a36.82,36.82,0,0,1,7.4,11.051L79.014,34.6a.514.514,0,0,0,.2.989.505.505,0,0,0,.2-.039l2.684-1.111a36.7,36.7,0,0,1,1.272,23.351H12.636a36.7,36.7,0,0,1,1.272-23.351ZM48,84.692A36.757,36.757,0,0,1,12.936,58.816H83.064A36.757,36.757,0,0,1,48,84.692Zm8.211-20.678-.389-.6a.515.515,0,0,0-.864.559l.389.6a.654.654,0,0,1,.106.356l.017,8.413a.654.654,0,0,1-.656.657h-.77V62.33a1.867,1.867,0,0,0-1.864-1.864H42.719a1.866,1.866,0,0,0-1.863,1.864v16.7h-.841a.514.514,0,0,0-.514.514v1.65a.514.514,0,0,0,.514.514h14.87a.514.514,0,0,0,.514-.514v-1.65a.514.514,0,0,0-.514-.514h-.841v-4h.77A1.685,1.685,0,0,0,56.5,73.34l-.018-8.413A1.683,1.683,0,0,0,56.211,64.014ZM54.37,80.679H40.53v-.621H54.37ZM41.884,79.03V62.33a.836.836,0,0,1,.835-.835H52.18a.837.837,0,0,1,.836.835v16.7Zm9.872-16.873H43.144a.515.515,0,0,0-.515.514V69.6a.516.516,0,0,0,.515.515h8.612a.515.515,0,0,0,.514-.515V62.671a.514.514,0,0,0-.514-.514Zm-.514,6.932H43.658v-5.9h7.584ZM46.247,53.464v1.557a.514.514,0,0,0,.514.515h2.478a.514.514,0,0,0,.514-.515V53.464a5.739,5.739,0,0,0,0-10.928V21.891a.523.523,0,0,0-.026-.162l-1.239-3.717a.515.515,0,0,0-.976,0l-1.239,3.717a.523.523,0,0,0-.026.162V42.536A5.781,5.781,0,0,0,42.263,48,5.721,5.721,0,0,0,46.247,53.464ZM52.709,48a4.692,4.692,0,0,1-2.956,4.369V43.631A4.692,4.692,0,0,1,52.709,48ZM47.276,21.975,48,19.8l.724,2.173V54.507H47.276ZM46.247,43.631v8.738A4.692,4.692,0,0,1,43.291,48,4.747,4.747,0,0,1,46.247,43.631Z"/><text x="0" y="111" fill="#000000" font-size="5px" font-weight="bold" font-family="'Helvetica Neue', Helvetica, Arial-Unicode, Arial, Sans-serif">Created by krisna arga muria</text><text x="0" y="116" fill="#000000" font-size="5px" font-weight="bold" font-family="'Helvetica Neue', Helvetica, Arial-Unicode, Arial, Sans-serif">from the Noun Project</text></svg>