<svg
  xmlns="http://www.w3.org/2000/svg" 
  xmlns:xlink="http://www.w3.org/1999/xlink" 
  version="1.1" 
  x="0px"
  y="0px" 
  viewBox="-449 451 120 120"   
  xml:space="preserve"
>
  <g transform="translate(10, 10)">
    <path d="M-365,503.4c0-21.8-8.2-39.1-18.9-40.5l0-0.1c-4.7-0.6-9.6-0.9-14.5-0.8c-4.1,0.1-8,0.6-12,1.1l0,0   c-10.4,2-18.2,19-18.2,40.4c0,22.7,8.9,40.6,20.3,40.6h24v0C-373.5,543-365.1,525.5-365,503.4z M-401.3,542.1l2.8-4.6   c0.3-0.5,0.2-1.1-0.3-1.4s-1.1-0.2-1.4,0.3l-3.5,5.7v0h-4.7c-0.2,0-0.5,0-0.7,0c-0.1-0.1-0.2-0.2-0.3-0.3l-4.3-2.7   c-0.5-0.3-1.1-0.2-1.4,0.3c0,0,0,0,0,0c-6.8-5.6-11.6-19.6-11.6-35.9c0-15.4,4.3-28.6,10.4-34.8l4.1,6.9c0.2,0.3,0.6,0.5,0.9,0.5   c0.2,0,0.4,0,0.5-0.1c0.5-0.3,0.7-0.9,0.4-1.4l-4.3-7.3c1.8-1.4,3.6-2.2,5.6-2.3l1.1,2.5c0.2,0.4,0.5,0.6,0.9,0.6   c0.2,0,0.3-0.1,0.4-0.1c0.5-0.2,0.7-0.8,0.5-1.3l-0.9-2.1c2.9-0.3,5.8-0.5,8.7-0.5c0.3,0,0.6,0,0.9,0l-7,3.2   c-0.5,0.2-0.7,0.8-0.5,1.3c0.2,0.4,0.5,0.6,0.9,0.6c0.1,0,0.3-0.1,0.4-0.1l7.9-3.6c0.5-0.2,0.7-0.8,0.5-1.3c0,0,0-0.1-0.1-0.1   c1.6,0,3.2,0.1,4.7,0.2c-3.3,1.8-6.3,5.1-8.9,10c-1.5,2.9-2.8,6.3-3.8,10c-1.1,4.2-1.9,8.7-2.2,13.4c-0.1,2-0.2,3.9-0.2,5.9   c0,18.2,5.7,33.3,13.9,38.6H-401.3z M-385.4,542c-10.1,0-18.3-17.3-18.3-38.6c0-1.9,0.1-3.8,0.2-5.7c0.3-4.6,1-9,2.1-13   c0.9-3.5,2.2-6.8,3.6-9.6c3.4-6.6,7.8-10.3,12.4-10.3c10.1,0,18.3,17.3,18.3,38.6C-367.1,524.7-375.3,542-385.4,542z"/>
    <path d="M-377.1,503.4c0-11.3-2.9-23.3-8.3-23.3c-5.4,0-8.3,12-8.3,23.3s2.9,23.3,8.3,23.3C-380,526.7-377.1,514.7-377.1,503.4z    M-391.7,503.4c0-12.5,3.3-21.3,6.3-21.3s6.3,8.8,6.3,21.3s-3.3,21.3-6.3,21.3S-391.7,516-391.7,503.4z"/>
    <path d="M-375.5,512.4c-0.5-0.1-1,0.3-1.1,0.8c-1.5,9.3-5.1,15.8-8.8,15.8c-0.6,0-1,0.4-1,1s0.4,1,1,1c4.9,0,9.1-6.7,10.7-17.5   C-374.6,513-375,512.5-375.5,512.4z"/>
    <path d="M-408.2,476.9c0.2,0,0.3,0,0.5-0.1l7.5-4.4c0.5-0.3,0.7-0.9,0.4-1.4s-0.9-0.7-1.4-0.4l-7.5,4.4c-0.5,0.3-0.7,0.9-0.4,1.4   C-408.9,476.7-408.5,476.9-408.2,476.9z"/>
    <path d="M-415,484c0.2,0.3,0.5,0.4,0.8,0.4c0.2,0,0.4,0,0.6-0.2c0.4-0.3,0.5-1,0.2-1.4l-5.1-7.1c-0.3-0.4-1-0.5-1.4-0.2   s-0.5,1-0.2,1.4L-415,484z"/>
    <path d="M-411.1,485c0.2,0,0.4-0.1,0.6-0.2l7.1-5.1c0.4-0.3,0.5-1,0.2-1.4c-0.3-0.4-1-0.5-1.4-0.2l-7.1,5.1c-0.4,0.3-0.5,1-0.2,1.4   C-411.7,484.9-411.4,485-411.1,485z"/>
    <path d="M-417.4,493c0.2,0.2,0.4,0.3,0.7,0.3s0.5-0.1,0.7-0.2c0.5-0.4,0.5-1,0.1-1.4l-5.9-6.4c-0.4-0.5-1-0.5-1.4-0.1   c-0.5,0.4-0.5,1-0.1,1.4L-417.4,493z"/>
    <path d="M-414.2,493.2c0.2,0.2,0.4,0.3,0.7,0.3c0.2,0,0.5-0.1,0.7-0.2l6.4-5.9c0.5-0.4,0.5-1,0.1-1.4c-0.4-0.5-1-0.5-1.4-0.1   l-6.4,5.9C-414.6,492.2-414.6,492.8-414.2,493.2z"/>
    <path d="M-418.3,501.9c0.2,0.2,0.4,0.3,0.7,0.3s0.5-0.1,0.7-0.3c0.4-0.4,0.4-1,0-1.4l-6.2-6.2c-0.4-0.4-1-0.4-1.4,0   c-0.4,0.4-0.4,1,0,1.4L-418.3,501.9z"/>
    <path d="M-408.9,494.3l-6.2,6.2c-0.4,0.4-0.4,1,0,1.4c0.2,0.2,0.4,0.3,0.7,0.3s0.5-0.1,0.7-0.3l6.2-6.2c0.4-0.4,0.4-1,0-1.4   C-407.9,493.9-408.5,493.9-408.9,494.3z"/>
    <path d="M-417.3,511.2c0.3,0,0.6-0.1,0.8-0.3c0.4-0.4,0.3-1-0.1-1.4l-6.7-5.6c-0.4-0.4-1-0.3-1.4,0.1c-0.4,0.4-0.3,1,0.1,1.4   l6.7,5.6C-417.7,511.1-417.5,511.2-417.3,511.2z"/>
    <path d="M-407.7,503.9c0.4-0.4,0.3-1-0.1-1.4c-0.4-0.4-1-0.3-1.4,0.1l-5.6,6.7c-0.4,0.4-0.3,1,0.1,1.4c0.2,0.1,0.4,0.2,0.6,0.2   c0.3,0,0.6-0.1,0.8-0.3L-407.7,503.9z"/>
    <path d="M-415.9,520.2c0.3,0,0.6-0.2,0.8-0.5c0.3-0.5,0.2-1.1-0.3-1.4l-7.3-4.8c-0.5-0.3-1.1-0.2-1.4,0.3s-0.2,1.1,0.3,1.4l7.3,4.8   C-416.3,520.1-416.1,520.2-415.9,520.2z"/>
    <path d="M-413.4,519.3c0.2,0.1,0.4,0.2,0.6,0.2c0.3,0,0.6-0.1,0.8-0.5l4.8-7.3c0.3-0.5,0.2-1.1-0.3-1.4c-0.5-0.3-1.1-0.2-1.4,0.3   l-4.8,7.3C-414,518.4-413.9,519-413.4,519.3z"/>
    <path d="M-413.7,529c0.3,0,0.7-0.2,0.9-0.5c0.2-0.5,0.1-1.1-0.4-1.4l-7.5-4.4c-0.5-0.2-1.1-0.1-1.4,0.4c-0.2,0.5-0.1,1.1,0.4,1.4   l7.5,4.4C-414,529-413.9,529-413.7,529z"/>
    <path d="M-405.7,518.8c-0.5-0.2-1.1-0.1-1.4,0.4l-4.4,7.5c-0.2,0.5-0.1,1.1,0.4,1.4c0.2,0.1,0.3,0.1,0.5,0.1c0.3,0,0.6-0.2,0.9-0.5   l4.4-7.5C-405.1,519.7-405.2,519.1-405.7,518.8z"/>
    <path d="M-410,535l-7.8-3.8c-0.5-0.2-1.1,0-1.3,0.5s0,1.1,0.5,1.3l7.8,3.8c0.1,0.1,0.3,0.1,0.4,0.1c0.4,0,0.7-0.2,0.9-0.6   C-409.3,535.8-409.5,535.2-410,535z"/>
    <path d="M-403.7,527.1c-0.5-0.2-1.1,0-1.3,0.5l-3.3,6.8c-0.2,0.5,0,1.1,0.5,1.3c0.1,0.1,0.3,0.1,0.4,0.1c0.4,0,0.7-0.2,0.9-0.6   l3.3-6.8C-403,527.9-403.2,527.3-403.7,527.1z"/>
  </g>
</svg>