<svg 
  xmlns="http://www.w3.org/2000/svg" 
  viewBox="0 0 712 712" 
  x="0px" 
  y="0px"
>
  <g transform="translate(100, 100)">
    <path d="M180.45,363.75a24.727,24.727,0,0,0-24.7,24.7v7.1a24.727,24.727,0,0,0,24.7,24.7h151.1a24.727,24.727,0,0,0,24.7-24.7v-7.1a24.727,24.727,0,0,0-24.7-24.7Zm167.3,24.7v7.1a16.219,16.219,0,0,1-16.2,16.2H180.45a16.219,16.219,0,0,1-16.2-16.2v-7.1a16.219,16.219,0,0,1,16.2-16.2h151.1A16.219,16.219,0,0,1,347.75,388.45Z"/>
    <path d="M328,379.75H184a4.25,4.25,0,0,0,0,8.5H328a4.25,4.25,0,0,0,0-8.5Z"/>
    <path d="M328,395.75H184a4.25,4.25,0,0,0,0,8.5H328a4.25,4.25,0,0,0,0-8.5Z"/>
    <path d="M140,403.75A16.25,16.25,0,1,0,156.25,420,16.269,16.269,0,0,0,140,403.75Zm0,24a7.75,7.75,0,1,1,7.75-7.75A7.759,7.759,0,0,1,140,427.75Z"/>
    <path d="M372,436.25A16.25,16.25,0,1,0,355.75,420,16.269,16.269,0,0,0,372,436.25Zm0-24a7.75,7.75,0,1,1-7.75,7.75A7.759,7.759,0,0,1,372,412.25Z"/>
    <circle cx="136" cy="384" r="8"/>
    <circle cx="376" cy="384" r="8"/>
    <path d="M266.357,292.464l-48-32a4.25,4.25,0,1,0-4.714,7.072l48,32a4.25,4.25,0,0,0,4.714-7.072Z"/>
    <path d="M298.357,292.464l-48-32a4.25,4.25,0,1,0-4.714,7.072l48,32a4.25,4.25,0,0,0,4.714-7.072Z"/>
    <path d="M404.25,312A20.273,20.273,0,0,0,384,291.75H372.25V270.93a75.266,75.266,0,0,0-75.18-75.18H214.93a75.266,75.266,0,0,0-75.18,75.18v20.82H128a20.25,20.25,0,0,0,0,40.5h6.529A56.555,56.555,0,0,0,107.75,380.3v52.2a19.775,19.775,0,0,0,16,19.383V473.57a18.7,18.7,0,0,0,18.68,18.68h19.14a18.7,18.7,0,0,0,18.68-18.68V452.25h15.5v7.989a8.02,8.02,0,0,0,8.011,8.011H308.239a8.02,8.02,0,0,0,8.011-8.011V452.25h15.5v21.32a18.7,18.7,0,0,0,18.68,18.68h19.14a18.7,18.7,0,0,0,18.68-18.68V451.883a19.775,19.775,0,0,0,16-19.383V380.3a56.555,56.555,0,0,0-26.779-48.05H384A20.273,20.273,0,0,0,404.25,312ZM384,300.25a11.75,11.75,0,0,1,0,23.5H372.25v-23.5Zm-169.07-96h82.14a66.755,66.755,0,0,1,66.68,66.68v55.154a56.353,56.353,0,0,0-15.5-2.32V269.45a49.756,49.756,0,0,0-49.7-49.7h-85.1a49.756,49.756,0,0,0-49.7,49.7v54.314a56.353,56.353,0,0,0-15.5,2.32V270.93A66.755,66.755,0,0,1,214.93,204.25Zm124.82,119.5H172.25v-54.3a41.246,41.246,0,0,1,41.2-41.2h85.1a41.246,41.246,0,0,1,41.2,41.2ZM116.25,312A11.763,11.763,0,0,1,128,300.25h11.75v23.5H128A11.763,11.763,0,0,1,116.25,312Zm55.5,161.57a10.191,10.191,0,0,1-10.18,10.18H142.43a10.191,10.191,0,0,1-10.18-10.18V452.25h39.5Zm136-13.82H204.25v-23.5h103.5Zm61.82,24H350.43a10.191,10.191,0,0,1-10.18-10.18V452.25h39.5v21.32A10.191,10.191,0,0,1,369.57,483.75ZM395.75,380.3v52.2a11.263,11.263,0,0,1-11.25,11.25H316.25v-7.989a8.02,8.02,0,0,0-8.011-8.011H203.761a8.02,8.02,0,0,0-8.011,8.011v7.989H127.5a11.263,11.263,0,0,1-11.25-11.25V380.3a48.1,48.1,0,0,1,48.05-48.05H347.7A48.1,48.1,0,0,1,395.75,380.3Z"/>
    <path d="M489.26,91.941l-232-72a4.246,4.246,0,0,0-2.52,0l-232,72A4.25,4.25,0,0,0,19.75,96V488A4.249,4.249,0,0,0,24,492.25H55.184a4.25,4.25,0,0,0,4.25-4.25V164.25H452.566V488a4.25,4.25,0,0,0,4.25,4.25H488a4.249,4.249,0,0,0,4.25-4.25V96A4.25,4.25,0,0,0,489.26,91.941ZM28.25,99.131,256,28.45,483.75,99.131V155.75H28.25ZM50.934,483.75H28.25V164.25H50.934Zm410.132,0V164.25H483.75v319.5Z"/>
    <path d="M340,87.75H224.414A36.269,36.269,0,0,0,158.382,90.4a4.249,4.249,0,0,0,2.342,5.535c.523.212,19.276.312,19.276.312a7.75,7.75,0,0,1,0,15.5s-18.753.1-19.276.312a4.249,4.249,0,0,0-2.342,5.535,36.269,36.269,0,0,0,66.032,2.653H340a16.25,16.25,0,0,0,0-32.5Zm5.485,21.735A7.707,7.707,0,0,1,340,111.75H221.68v0a4.241,4.241,0,0,0-3.939,2.648A27.77,27.77,0,0,1,169.5,120.25H180a16.25,16.25,0,0,0,0-32.5H169.5A27.77,27.77,0,0,1,217.741,93.6a4.251,4.251,0,0,0,3.94,2.654H340a7.757,7.757,0,0,1,5.485,13.235Z"/>
  </g>  
</svg>