<svg 
  xmlns="http://www.w3.org/2000/svg" 
  data-name="Layer 1" 
  viewBox="0 0 100 100" 
  x="0px" 
  y="0px"
>
  <path d="m50,10c-22.06,0-40,17.94-40,40s17.94,40,40,40,40-17.94,40-40S72.06,10,50,10Zm31.78,21.09c-.21.9-1.51,6.38-1.51,6.38-.17.64.78,1.01,1.08.42l2.08-3.72c.61,1.27,1.14,2.59,1.6,3.94-.38.81-2.81,5.93-2.81,5.93-.3.59.55,1.15.97.64l2.8-3.21c.32,1.37.57,2.76.74,4.19-.54.71-3.98,5.22-3.98,5.22-.42.51.3,1.24.82.82l3.41-2.55c0,.29.02.58.02.87,0,1.14-.06,2.26-.16,3.37l-4.98,4.28c-.19.17-.26.45-.15.69.14.29.48.42.78.29l3.87-1.79c-.26,1.4-.6,2.78-1.01,4.12l-5.77,3.15c-.22.12-.35.38-.29.65.07.32.39.51.7.44l4.16-.95c-.55,1.32-1.18,2.59-1.88,3.83-.26.08-6.28,1.88-6.28,1.88-.64.18-.49,1.17.18,1.15l4.25-.06c-.81,1.17-1.69,2.29-2.62,3.35-.3.02-6.52.53-6.52.53-.66.04-.72,1.04-.07,1.16l4.16.82c-1.03.97-2.1,1.89-3.24,2.74-.27-.03-6.5-.84-6.5-.84-.65-.1-.92.88-.31,1.12l3.92,1.67c-1.21.74-2.46,1.4-3.75,2-.25-.09-6.19-2.17-6.19-2.17-.61-.24-1.09.67-.53,1.03l3.49,2.45c-1.33.47-2.69.86-4.09,1.18-.76-.46-5.61-3.41-5.61-3.41-.55-.36-1.2.43-.73.9l2.9,3.12c-1.39.18-2.81.28-4.24.3-.66-.62-4.77-4.5-4.77-4.5-.46-.47-1.26.17-.91.73l2.19,3.66c-1.42-.11-2.83-.3-4.2-.58l-3.74-5.41c-.15-.21-.42-.31-.67-.22-.31.1-.47.44-.37.74l1.38,4.04c-1.37-.41-2.7-.89-4-1.45-.34-.82-2.53-6.06-2.53-6.06-.25-.62-1.21-.37-1.12.3l.51,4.23c-1.25-.69-2.45-1.45-3.61-2.27-.18-.94-1.21-6.43-1.21-6.43-.11-.66-1.11-.61-1.16.06l-.38,4.22c-1.08-.93-2.1-1.91-3.06-2.95l.15-6.54c0-.26-.16-.5-.41-.57-.31-.1-.64.08-.73.39l-1.25,4.06c-.86-1.12-1.66-2.3-2.38-3.51.21-.89,1.51-6.38,1.51-6.38.17-.64-.78-1.01-1.08-.42l-2.08,3.72c-.61-1.27-1.14-2.59-1.6-3.94.38-.81,2.81-5.93,2.81-5.93.3-.59-.55-1.15-.97-.64l-2.8,3.21c-.32-1.37-.57-2.76-.74-4.19.54-.71,3.98-5.22,3.98-5.22.42-.51-.3-1.24-.82-.82l-3.41,2.56c0-.29-.02-.58-.02-.87,0-1.14.06-2.26.16-3.37l4.98-4.28c.19-.17.26-.45.15-.69-.14-.29-.48-.42-.78-.29l-3.87,1.79c.26-1.4.6-2.78,1.01-4.12l5.77-3.16c.22-.12.35-.38.29-.65-.07-.32-.39-.51-.7-.44l-4.16.95c.55-1.32,1.18-2.59,1.88-3.83.89-.27,6.28-1.88,6.28-1.88.64-.18.49-1.17-.18-1.15l-4.25.06c.81-1.17,1.69-2.29,2.62-3.35.96-.08,6.52-.53,6.52-.53.66-.04.72-1.04.07-1.16l-4.16-.82c1.03-.97,2.1-1.89,3.24-2.74.91.12,6.5.84,6.5.84.65.1.92-.88.31-1.12l-3.92-1.67c1.21-.74,2.46-1.4,3.75-2,.86.3,6.19,2.17,6.19,2.17.61.24,1.09-.67.53-1.03l-3.49-2.45c1.33-.47,2.69-.86,4.09-1.18.76.46,5.61,3.41,5.61,3.41.55.36,1.2-.43.73-.9l-2.9-3.12c1.39-.18,2.81-.28,4.24-.3.66.62,4.77,4.5,4.77,4.5.46.47,1.26-.17.91-.73l-2.19-3.66c1.42.11,2.83.3,4.2.58l3.74,5.41c.15.21.42.31.67.22.31-.1.47-.44.37-.74l-1.38-4.04c1.37.41,2.7.89,4,1.45.34.82,2.53,6.06,2.53,6.06.25.62,1.21.37,1.12-.3l-.51-4.23c1.25.69,2.45,1.45,3.61,2.27.18.94,1.21,6.43,1.21,6.43.11.66,1.11.61,1.16-.06l.38-4.22c1.08.93,2.1,1.91,3.06,2.95l-.15,6.54c0,.26.16.5.41.57.31.1.64-.08.73-.39l1.25-4.06c.86,1.12,1.66,2.3,2.38,3.51Z"/><path d="m50,23.5c-14.61,0-26.5,11.89-26.5,26.5s11.89,26.5,26.5,26.5,26.5-11.89,26.5-26.5-11.89-26.5-26.5-26.5Zm4.79,5.56c0-.5.23-.96.64-1.26.17-.12.47-.3.87-.3.13,0,.26.02.41.06,1.49.44,2.94,1.03,4.31,1.76.46.24.76.67.84,1.18.04.28.04.83-.43,1.31l-3.99,3.99c-.68.68-1.46.43-1.68.33-.22-.09-.95-.47-.95-1.43v-5.64Zm-16.63,1.44c.08-.5.38-.93.84-1.18,1.37-.73,2.82-1.32,4.31-1.76.14-.04.28-.06.41-.06.4,0,.7.17.87.3.4.3.64.76.64,1.26v5.64c0,.96-.73,1.33-.95,1.43-.22.09-1.01.34-1.68-.33l-3.99-3.99c-.47-.47-.47-1.02-.43-1.31Zm-10.59,12.79c.44-1.49,1.04-2.94,1.77-4.3.25-.46.67-.76,1.18-.84.07,0,.14-.02.23-.02.3,0,.71.08,1.07.45l3.99,3.98c.68.68.43,1.46.33,1.68-.09.22-.47.95-1.43.95h-5.65c-.5,0-.96-.23-1.26-.64-.16-.22-.41-.68-.24-1.27Zm2.94,18.55c-.5-.08-.93-.38-1.18-.84-.73-1.37-1.33-2.82-1.77-4.31-.18-.6.07-1.05.24-1.27.3-.4.76-.64,1.26-.64h5.65c.96,0,1.33.73,1.43.95.09.22.34,1.01-.33,1.68l-3.99,3.99c-.47.47-1.02.47-1.3.43Zm14.71,9.09c0,.5-.23.96-.64,1.26-.22.16-.68.41-1.27.24-1.49-.44-2.94-1.04-4.31-1.77-.46-.24-.76-.67-.84-1.18-.04-.28-.04-.83.43-1.31l3.99-3.99c.36-.36.75-.46,1.06-.46.28,0,.51.08.62.12.22.09.95.47.95,1.43v5.65Zm16.64-1.44c-.08.5-.38.93-.84,1.18-1.37.73-2.82,1.33-4.31,1.77-.6.18-1.05-.07-1.27-.24-.4-.3-.64-.76-.64-1.26v-5.65c0-.96.73-1.33.95-1.43.11-.04.33-.12.62-.12.32,0,.71.1,1.06.46l3.99,3.99c.47.47.47,1.02.43,1.31Zm10.59-12.79c-.44,1.49-1.04,2.94-1.77,4.31-.24.46-.67.76-1.18.84-.28.04-.83.04-1.3-.43l-3.99-3.99c-.68-.68-.43-1.46-.33-1.68s.47-.95,1.43-.95h5.65c.5,0,.96.23,1.26.64.17.22.41.68.24,1.27Zm1.06-6.7c0,.84-.05,1.67-.13,2.49-.72-.45-1.56-.71-2.43-.71h-5.65c-1.87,0-3.48,1.07-4.2,2.8-.72,1.73-.34,3.63.98,4.95l3.99,3.99c.62.62,1.39,1.03,2.21,1.21-1.05,1.3-2.23,2.48-3.53,3.53-.18-.82-.6-1.59-1.22-2.21l-3.99-3.99h0c-1.32-1.32-3.22-1.7-4.95-.98-1.73.72-2.8,2.33-2.8,4.2v5.65c0,.87.26,1.71.71,2.43-.82.09-1.65.13-2.5.13s-1.68-.05-2.5-.13c.45-.72.71-1.56.71-2.43v-5.65c0-1.87-1.07-3.48-2.8-4.2-1.73-.72-3.63-.34-4.95.98l-3.99,3.99c-.62.62-1.03,1.39-1.22,2.21-1.3-1.05-2.48-2.23-3.53-3.53.82-.18,1.59-.59,2.21-1.21l3.99-3.99c1.32-1.32,1.7-3.22.98-4.95s-2.33-2.8-4.2-2.8h-5.65c-.87,0-1.71.25-2.43.71-.09-.82-.13-1.65-.13-2.49s.05-1.68.13-2.5c.72.45,1.56.71,2.43.71h5.65c1.87,0,3.48-1.07,4.2-2.8.72-1.73.34-3.63-.98-4.95l-3.99-3.98c-.62-.62-1.39-1.04-2.21-1.22,1.05-1.29,2.23-2.47,3.52-3.52.18.82.6,1.58,1.22,2.2l3.99,3.99c.88.88,2.01,1.34,3.18,1.34.59,0,1.19-.12,1.77-.36,1.73-.72,2.8-2.33,2.8-4.2v-5.64c0-.87-.25-1.71-.71-2.43.82-.09,1.65-.13,2.5-.13s1.68.05,2.5.13c-.45.72-.71,1.56-.71,2.43v5.64c0,1.87,1.08,3.48,2.8,4.2.58.24,1.18.36,1.77.36,1.17,0,2.3-.46,3.18-1.34l3.99-3.99c.62-.62,1.03-1.38,1.22-2.2,1.29,1.05,2.47,2.23,3.52,3.52-.82.18-1.59.6-2.21,1.22l-3.99,3.98c-1.32,1.32-1.7,3.22-.98,4.95s2.33,2.8,4.2,2.8h5.65c.87,0,1.71-.25,2.43-.71.09.82.13,1.66.13,2.5Zm-4.01-11.85c.5.07.93.38,1.18.84.73,1.37,1.33,2.82,1.77,4.3.18.59-.07,1.05-.24,1.27-.3.41-.76.64-1.27.64h-5.65c-.96,0-1.33-.73-1.43-.95s-.34-1.01.33-1.68l3.99-3.98c.47-.47,1.02-.47,1.3-.43Z"/>
  <path d="m50,42.94c-3.89,0-7.06,3.17-7.06,7.06s3.17,7.06,7.06,7.06,7.06-3.17,7.06-7.06-3.17-7.06-7.06-7.06Zm0,11.11c-2.24,0-4.06-1.82-4.06-4.06s1.82-4.06,4.06-4.06,4.06,1.82,4.06,4.06-1.82,4.06-4.06,4.06Z"/>  
</svg>