<svg 
	xmlns="http://www.w3.org/2000/svg" 
	xmlns:xlink="http://www.w3.org/1999/xlink" 
	version="1.1" 
	x="0px" 
	y="0px" 
	viewBox="0 0 651.5 651.5" 
	style="enable-background:new 0 0 491.5 491.5;" 
	xml:space="preserve"
>
	<g>
		<g transform="translate(80, 80)">
			<path class="st0" d="M339.2,418.2h-41.3c-2.6,0-4.7-2.1-4.7-4.7V244c0-2.6,2.1-4.7,4.7-4.7l87.4,0    c10.9,0,20.2,6.6,23.9,16.8l22.8,63.8c1.7,4.7,5.8,7.9,10.2,11.4c1,0.8,2,1.5,2.9,2.3c6,5,9.2,11.7,9.2,19.6l0,31.9    c0,2.6-2.1,4.7-4.7,4.7c-2.6,0-4.7-2.1-4.7-4.7v-31.9c0-5-1.9-9.1-5.8-12.3c-0.9-0.7-1.8-1.5-2.8-2.2c-5-3.9-10.7-8.4-13.2-15.6    l-22.8-63.8c-2.3-6.5-8.1-10.5-15-10.5l-82.6,0v160.1h36.5c2.6,0,4.7,2.1,4.7,4.7C343.9,416.1,341.8,418.2,339.2,418.2    L339.2,418.2z"/>
			<path class="st0" d="M128.8,383.7c-16.4,0-29.8,13.4-29.8,29.8c0,16.4,13.4,29.8,29.8,29.8    c16.4,0,29.8-13.4,29.8-29.8C158.6,397.1,145.2,383.7,128.8,383.7z M128.8,452.8c-21.7,0-39.3-17.6-39.3-39.3    c0-21.7,17.6-39.3,39.3-39.3c21.7,0,39.3,17.6,39.3,39.3C168,435.1,150.4,452.8,128.8,452.8z"/>
			<path class="st0" d="M128.8,404c-5.3,0-9.5,4.3-9.5,9.5c0,5.3,4.3,9.5,9.5,9.5c5.3,0,9.5-4.3,9.5-9.5    C138.3,408.2,134,404,128.8,404z M128.8,432.5c-10.5,0-19-8.5-19-19c0-10.5,8.5-19,19-19c10.5,0,19,8.5,19,19    C147.8,424,139.3,432.5,128.8,432.5L128.8,432.5z"/>
			<path class="st0" d="M373.7,383.7c-16.4,0-29.8,13.4-29.8,29.8c0,16.4,13.4,29.8,29.8,29.8    c16.4,0,29.8-13.4,29.8-29.8C403.5,397.1,390.2,383.7,373.7,383.7z M373.7,452.8c-21.7,0-39.3-17.6-39.3-39.3    c0-21.7,17.6-39.3,39.3-39.3c21.7,0,39.3,17.6,39.3,39.3C413,435.1,395.4,452.8,373.7,452.8z"/>
			<path class="st0" d="M373.7,404c-5.3,0-9.5,4.3-9.5,9.5c0,5.3,4.3,9.5,9.5,9.5c5.3,0,9.5-4.3,9.5-9.5    C383.3,408.2,379,404,373.7,404z M373.7,432.5c-10.5,0-19-8.5-19-19c0-10.5,8.5-19,19-19c10.5,0,19,8.5,19,19    C392.8,424,384.2,432.5,373.7,432.5z"/>
			<path class="st0" d="M340.5,360h-17.2c-2.6,0-4.7-2.1-4.7-4.7c0-2.6,2.1-4.7,4.7-4.7h17.2c2.6,0,4.7,2.1,4.7,4.7    C345.2,357.9,343.1,360,340.5,360L340.5,360z"/>
			<path class="st0" d="M449.5,418.2h-41.3c-2.6,0-4.7-2.1-4.7-4.7c0-2.6,2.1-4.7,4.7-4.7l41.3,0    c2,0,3.7-1.7,3.7-3.7l0-11.6c0-2-1.7-3.7-3.7-3.7l-56.3,0c-2.6,0-4.7-2.1-4.7-4.7c0-2.6,2.1-4.7,4.7-4.7l56.3,0    c7.3,0,13.2,5.9,13.2,13.2v11.6C462.7,412.3,456.8,418.2,449.5,418.2L449.5,418.2z"/>
			<path class="st0" d="M94.3,418.2H42c-7.3,0-13.2-5.9-13.2-13.2v-44.8c0-7.3,5.9-13.2,13.2-13.2l255.9,0    c2.6,0,4.7,2.1,4.7,4.7c0,2.6-2.1,4.7-4.7,4.7l-255.9,0c-2,0-3.7,1.7-3.7,3.7v44.8c0,2,1.7,3.7,3.7,3.7l52.3,0    c2.6,0,4.7,2.1,4.7,4.7C99,416.1,96.9,418.2,94.3,418.2L94.3,418.2z M196.5,418.2h-33.2c-2.6,0-4.7-2.1-4.7-4.7    c0-2.6,2.1-4.7,4.7-4.7l33.2,0c2.6,0,4.7,2.1,4.7,4.7C201.3,416.1,199.1,418.2,196.5,418.2z M297.9,418.2h-39.8    c-2.6,0-4.7-2.1-4.7-4.7c0-2.6,2.1-4.7,4.7-4.7l39.8,0c2.6,0,4.7,2.1,4.7,4.7C302.7,416.1,300.5,418.2,297.9,418.2z"/>
			<path class="st0" d="M426.4,323h-80.4c-2.6,0-4.7-2.1-4.7-4.7v-52.7c0-2.6,2.1-4.7,4.7-4.7l61.6,0    c2.6,0,4.7,2.1,4.7,4.7c0,2.6-2.1,4.7-4.7,4.7l-56.9,0v43.2h75.7c2.6,0,4.7,2.1,4.7,4.7C431.1,320.9,429,323,426.4,323L426.4,323z    "/>
			<path class="st0" d="M449.5,373.8h-17.7c-5.8,0-10.5-4.7-10.5-10.5l0-7.4c0-5.8,4.7-10.5,10.5-10.5l17.5,0    c2.6,0,4.7,2.1,4.7,4.7c0,2.6-2.1,4.7-4.7,4.7h-17.5c-0.5,0-1,0.5-1,1l0,7.4c0,0.5,0.5,1,1,1l17.7,0c2.6,0,4.7,2.1,4.7,4.7    C454.3,371.7,452.2,373.8,449.5,373.8L449.5,373.8z"/>
			<path class="st0" d="M269.2,356.6c-2.6,0-4.7-2.1-4.7-4.7V148.9c0-6.5,5.3-11.8,11.8-11.8l14.5,0    c6.5,0,11.8,5.3,11.8,11.8V244c0,2.6-2.1,4.7-4.7,4.7c-2.6,0-4.7-2.1-4.7-4.7v-95.1c0-1.3-1.1-2.4-2.4-2.4l-14.5,0    c-1.3,0-2.4,1.1-2.4,2.4v202.9C273.9,354.4,271.8,356.6,269.2,356.6L269.2,356.6z"/>
			<path class="st0" d="M190.8,335.9h-100c-2.6,0-4.7-2.1-4.7-4.7c0-2.6,2.1-4.7,4.7-4.7l100,0    c2.6,0,4.7,2.1,4.7,4.7C195.6,333.8,193.4,335.9,190.8,335.9L190.8,335.9z M63.7,236.2l4.5,1.6c0,0,0,0,0,0c0,0,0,0,0,0    c0,0,0,0,0-0.1c0,0,0,0,0,0c0,0,0,0,0,0L63.7,236.2L63.7,236.2z M236.9,336.2c-1.6,0-3.4-0.1-5.3-0.3c-2.6-0.3-4.4-2.7-4.1-5.3    c0.3-2.6,2.7-4.4,5.3-4.1c5.2,0.6,9,0.1,10.7-1.4c0.4-0.4,1.6-1.4,1.5-5.1c-0.1-4.2-0.1-8.4,0-12.5c0-2.1,0-4.1,0-6.2    c0-20.5-17.7-25.2-44.8-30.2c-2-0.4-4-0.7-6-1.1c-0.9-0.2-1.7-0.6-2.4-1.3L162.1,240c-2.3-2.3-2.3-2.3-6.5-2.3c0,0,0,0-0.1,0H68.2    c2.6,5.1,1.4,9.2-0.1,11.7c-12,21.1-14.5,21.6-16.4,22.1c-0.6,0.1-1.9,1.2-3.4,4.5c-5.9,12.9-6.2,39.5-4.2,44.2    c0.4,0.4,1,0.9,1.6,1.5c1.7,1.6,4.3,4.1,5.8,4.8c2.4,1.1,3.4,4,2.2,6.3c-1.1,2.4-4,3.4-6.3,2.2c-2.9-1.4-5.9-4.2-8.3-6.5    c-0.6-0.6-1.2-1.1-1.7-1.6c-6.2-5.7-4.1-33.9-0.5-47c2.7-9.9,6.5-15.6,11.6-17.3c1.8-2,6.6-9.5,11.3-17.8c0.3-0.6,0.6-1.2-0.2-2.7    c-1.5-3-1.4-6.4,0.4-9.2c1.7-2.8,4.7-4.5,8.1-4.5l87.2,0c5.8,0,8.3,0.2,13.3,4.9l28.7,27.8c1.5,0.3,3,0.6,4.5,0.8    c23.4,4.3,52.6,9.6,52.6,39.5c0,2.1,0,4.1,0,6.2c0,4-0.1,8.2,0,12.3c0.1,5.3-1.5,9.4-4.6,12.3    C246.8,334.8,242.5,336.2,236.9,336.2L236.9,336.2z"/>
			<path class="st0" d="M70.2,315.2c-8.8,0-15.9,7.2-15.9,15.9c0,8.8,7.2,15.9,15.9,15.9c8.8,0,15.9-7.2,15.9-15.9    C86.1,322.4,79,315.2,70.2,315.2L70.2,315.2z M70.2,356.6c-14,0-25.4-11.4-25.4-25.4c0-14,11.4-25.4,25.4-25.4    c14,0,25.4,11.4,25.4,25.4C95.6,345.2,84.2,356.6,70.2,356.6z"/>
			<path class="st0" d="M211.5,315.2c-8.8,0-15.9,7.2-15.9,15.9c0,8.8,7.2,15.9,15.9,15.9c8.8,0,15.9-7.2,15.9-15.9    C227.4,322.4,220.3,315.2,211.5,315.2L211.5,315.2z M211.5,356.6c-14,0-25.4-11.4-25.4-25.4c0-14,11.4-25.4,25.4-25.4    c14,0,25.4,11.4,25.4,25.4C236.9,345.2,225.5,356.6,211.5,356.6z"/>
			<path class="st0" d="M143.8,305.5h-10.2c-2.6,0-4.7-2.1-4.7-4.7c0-2.6,2.1-4.7,4.7-4.7l10.2,0    c2.6,0,4.7,2.1,4.7,4.7C148.6,303.3,146.5,305.5,143.8,305.5L143.8,305.5z"/>
			<path class="st0" d="M210,297.8h-5.2c-2.6,0-4.7-2.1-4.7-4.7c0-2.6,2.1-4.7,4.7-4.7l5.2,0c2.6,0,4.7,2.1,4.7,4.7    C214.7,295.6,212.6,297.8,210,297.8z"/>
			<path class="st0" d="M65.1,298.3H60c-2.6,0-4.7-2.1-4.7-4.7c0-2.6,2.1-4.7,4.7-4.7l5.2,0c2.6,0,4.7,2.1,4.7,4.7    C69.9,296.2,67.8,298.3,65.1,298.3z"/>
			<path class="st0" d="M70.2,335.9L70.2,335.9c-2.6,0-4.7-2.1-4.7-4.7c0-2.6,2.1-4.7,4.7-4.7c2.6,0,4.7,2.1,4.7,4.7    C74.9,333.8,72.8,335.9,70.2,335.9z"/>
			<path class="st0" d="M211.5,335.9L211.5,335.9c-2.6,0-4.7-2.1-4.7-4.7c0-2.6,2.1-4.7,4.7-4.7    c2.6,0,4.7,2.1,4.7,4.7C216.2,333.8,214.1,335.9,211.5,335.9L211.5,335.9z"/>
			<path class="st0" d="M84.8,253.1c-1,0-1.9,0.6-2.2,1.5l-6.1,16.5c-0.4,1,0,1.8,0.3,2.2c0.3,0.4,0.9,1,2,1l27,0    l-6.4-21.3L84.8,253.1L84.8,253.1z M112,283.8H78.7c-3.9,0-7.5-1.9-9.7-5.1c-2.2-3.2-2.7-7.2-1.4-10.9l6.1-16.5    c1.7-4.7,6.1-7.7,11.1-7.7l18,0c2.1,0,3.9,1.4,4.5,3.4l9.2,30.7c0.4,1.4,0.2,3-0.7,4.2C114.9,283.1,113.5,283.8,112,283.8    L112,283.8z M132,274.3h37.6c1.4,0,2-1,2.2-1.5c0.2-0.4,0.5-1.6-0.5-2.6v0l-17-16.5c-0.5-0.5-1-0.7-1.6-0.7l-26.9,0L132,274.3z     M169.6,283.8h-41.1c-2.1,0-3.9-1.4-4.5-3.4l-9.2-30.7c-0.4-1.4-0.2-3,0.7-4.2c0.9-1.2,2.3-1.9,3.8-1.9l33.3,0    c3.1,0,6,1.2,8.2,3.3l17,16.5c3.5,3.4,4.6,8.5,2.7,13C178.7,280.9,174.4,283.8,169.6,283.8L169.6,283.8z"/>
			<path class="st0" d="M269.2,167.2c-0.8,0-1.6-0.2-2.4-0.6L105.5,73.5c-5.7-3.3-7.6-10.5-4.3-16.2l7.3-12.6    c1.6-2.7,4.1-4.7,7.2-5.5c3.1-0.8,6.3-0.4,9,1.2l168.6,97.3c2.3,1.3,3,4.2,1.7,6.5c-1.3,2.3-4.2,3-6.5,1.7L119.9,48.6    c-0.7-0.4-1.4-0.3-1.8-0.2c-0.4,0.1-1,0.4-1.4,1.1L109.4,62c-0.6,1.1-0.2,2.6,0.9,3.2l161.3,93.1c2.3,1.3,3,4.2,1.7,6.5    C272.4,166.4,270.8,167.2,269.2,167.2z"/>
			<path class="st0" d="M122,179.2c-10.1,0-18.4-8.2-18.4-18.4c0-2.6,2.1-4.7,4.7-4.7c2.6,0,4.7,2.1,4.7,4.7    c0,4.9,4,8.9,8.9,8.9c4.9,0,8.9-4,8.9-8.9c0-4.9-4-8.9-8.9-8.9c-2.6,0-4.7-2.1-4.7-4.7V77.5c0-2.6,2.1-4.7,4.7-4.7    c2.6,0,4.7,2.1,4.7,4.7v65.6c7.8,2.1,13.6,9.3,13.6,17.7C140.4,171,132.1,179.2,122,179.2L122,179.2z"/>
			<path class="st0" d="M202.2,405.9c-0.5,0-0.9,0.4-0.9,0.9v13.4c0,0.5,0.4,0.9,0.9,0.9l50.3,0    c0.5,0,0.9-0.4,0.9-0.9l0-13.4c0-0.5-0.4-0.9-0.9-0.9L202.2,405.9L202.2,405.9z M252.5,430.6h-50.3c-5.7,0-10.4-4.7-10.4-10.4    v-13.4c0-5.7,4.7-10.4,10.4-10.4h50.3c5.7,0,10.4,4.7,10.4,10.4v13.4C262.8,425.9,258.2,430.6,252.5,430.6L252.5,430.6z"/>
			<path class="st0" d="M122,65.6L122,65.6c-2.6,0-4.7-2.1-4.7-4.7c0-2.6,2.1-4.7,4.7-4.7c2.6,0,4.7,2.1,4.7,4.7    C126.7,63.4,124.6,65.6,122,65.6L122,65.6z"/>
		</g>
	</g>	
</svg>