<svg 
  xmlns="http://www.w3.org/2000/svg" 
  xmlns:xlink="http://www.w3.org/1999/xlink" 
  version="1.1" 
  x="0px" 
  y="0px" 
  viewBox="0 0 512 512" 
  style="enable-background:new 0 0 512 512;" 
  xml:space="preserve"
> 
  <defs>
    <style type="text/css">
    .scene {
      perspective: 400px;
    }

    .animated-icon {     
      transform-origin: 50% 50%;
      animation: rotateY 5000ms infinite backwards linear;
    }

    @keyframes rotateY {
      0% {
        transform: perspective(400px) rotateY(0deg);
      }

      100% {
        transform: perspective(400px) rotateY(-360deg);
      }
    }
    </style>
  </defs>
  <g class="scene">
    <g fill="rgba(18, 20, 23, 1)" class="animated-icon">
      <g><path d="M315.988,376.012c-99.252,0-180-80.748-180-180c0-99.252,80.748-180,180-180s180,80.748,180,180     C495.988,295.264,415.241,376.012,315.988,376.012z M315.988,36.012c-88.224,0-160,71.776-160,160c0,88.225,71.776,160,160,160     s160-71.775,160-160C475.988,107.788,404.212,36.012,315.988,36.012z"/></g>
      <g><path d="M315.988,326.012c-71.682,0-130-58.318-130-130s58.318-130,130-130s130,58.318,130,130S387.67,326.012,315.988,326.012z      M315.988,86.012c-60.654,0-110,49.346-110,110s49.346,110,110,110s110-49.346,110-110S376.643,86.012,315.988,86.012z"/></g>
      <g><path d="M157.908,392.372c-2.652,0-5.196-1.054-7.071-2.929l-28.28-28.28c-3.905-3.905-3.905-10.237,0-14.143l52.84-52.84     c3.905-3.904,10.237-3.904,14.143,0c3.905,3.905,3.905,10.237,0,14.143l-45.769,45.769l14.138,14.138l45.769-45.77     c3.905-3.904,10.237-3.904,14.142,0c3.905,3.905,3.906,10.237,0,14.143l-52.84,52.841     C163.104,391.318,160.561,392.372,157.908,392.372z"/></g>
      <g><path d="M65.988,495.988c-12.805,0-25.606-4.873-35.356-14.621c-19.495-19.495-19.495-51.216,0-70.711l77.782-77.782     c1.875-1.875,4.419-2.929,7.071-2.929c2.652,0,5.196,1.054,7.071,2.929l56.568,56.569c3.905,3.905,3.905,10.237-0.001,14.143     l-77.782,77.781C91.597,491.113,78.79,495.988,65.988,495.988z M115.486,354.088l-70.71,70.711     c-11.697,11.696-11.697,30.729,0,42.426c11.696,11.697,30.729,11.697,42.426,0l70.711-70.71L115.486,354.088z"/></g>
      <g><path d="M344.272,266.723l-28.284-28.285l-28.284,28.285c-3.905,3.905-10.237,3.905-14.143,0l-28.284-28.284     c-3.905-3.905-3.905-10.237,0-14.143l28.285-28.284l-28.285-28.284c-3.905-3.905-3.905-10.237,0-14.143l28.284-28.284     c3.905-3.905,10.237-3.905,14.143,0l28.284,28.285l28.284-28.285c3.905-3.905,10.237-3.905,14.143,0l28.284,28.284     c3.905,3.905,3.905,10.237,0,14.143l-28.285,28.284l28.285,28.284c3.905,3.905,3.905,10.237,0,14.143l-28.284,28.284     C354.51,270.627,348.178,270.628,344.272,266.723z M323.06,217.225l28.284,28.285l14.142-14.142l-28.285-28.284     c-3.905-3.905-3.905-10.237,0-14.143l28.285-28.284l-14.142-14.142l-28.284,28.285c-3.905,3.904-10.237,3.904-14.143,0     l-28.284-28.285l-14.142,14.142l28.285,28.284c3.905,3.905,3.905,10.237,0,14.143l-28.285,28.284l14.142,14.142l28.284-28.285     C312.823,213.319,319.154,213.32,323.06,217.225z"/></g>    
    </g>
  </g>  
</svg>