<svg 
  xmlns="http://www.w3.org/2000/svg" 
  xmlns:xlink="http://www.w3.org/1999/xlink" 
  version="1.1" 
  x="0px" 
  y="0px" 
  viewBox="0 0 110 110" 
  xml:space="preserve"
>
  <g transform="translate(5, 5)">
    <path d="M25.3886719,75.4819336h-4.1083984c-0.4140625,0-0.75,0.3359375-0.75,0.75s0.3359375,0.75,0.75,0.75h4.1083984  c0.4140625,0,0.75-0.3359375,0.75-0.75S25.8027344,75.4819336,25.3886719,75.4819336z"/>
    <path d="M34.1923828,56.2895508c2.2519531,0,4.0839844-1.7080078,4.0839844-3.8071289  c0-2.0996094-1.8320313-3.8076172-4.0839844-3.8076172c-2.2529297,0-4.0849609,1.7080078-4.0849609,3.8076172  C30.1074219,54.581543,31.9394531,56.2895508,34.1923828,56.2895508z M34.1923828,50.1748047  c1.4248047,0,2.5839844,1.0351563,2.5839844,2.3076172c0,1.2719727-1.1591797,2.3071289-2.5839844,2.3071289  c-1.4257813,0-2.5849609-1.0351563-2.5849609-2.3071289C31.6074219,51.2099609,32.7666016,50.1748047,34.1923828,50.1748047z"/>
    <path d="M44.5712891,60.8540039c0.4140625,0,0.75-0.3359375,0.75-0.75V49.4907227c0-0.4140625-0.3359375-0.75-0.75-0.75  s-0.75,0.3359375-0.75,0.75v10.6132813C43.8212891,60.5180664,44.1572266,60.8540039,44.5712891,60.8540039z"/>
    <path d="M39.6689453,60.8540039c0.4140625,0,0.75-0.3359375,0.75-0.75V49.4907227c0-0.4140625-0.3359375-0.75-0.75-0.75  s-0.75,0.3359375-0.75,0.75v10.6132813C38.9189453,60.5180664,39.2548828,60.8540039,39.6689453,60.8540039z"/>
    <path d="M77.2685547,75.4819336h-4.1083984c-0.4140625,0-0.75,0.3359375-0.75,0.75s0.3359375,0.75,0.75,0.75h4.1083984  c0.4140625,0,0.75-0.3359375,0.75-0.75S77.6826172,75.4819336,77.2685547,75.4819336z"/>
    <path d="M25.3886719,71.4584961h-4.1083984c-0.4140625,0-0.75,0.3359375-0.75,0.75s0.3359375,0.75,0.75,0.75h4.1083984  c0.4140625,0,0.75-0.3359375,0.75-0.75S25.8027344,71.4584961,25.3886719,71.4584961z"/>
    <path d="M72.4101563,72.2084961c0,0.4140625,0.3359375,0.75,0.75,0.75h4.1083984c0.4140625,0,0.75-0.3359375,0.75-0.75  s-0.3359375-0.75-0.75-0.75h-4.1083984C72.7460938,71.4584961,72.4101563,71.7944336,72.4101563,72.2084961z"/>
    <path d="M63.7714844,56.2895508c2.2529297,0,4.0849609-1.7080078,4.0849609-3.8071289  c0-2.0996094-1.8320313-3.8076172-4.0849609-3.8076172c-2.2519531,0-4.0839844,1.7080078-4.0839844,3.8076172  C59.6875,54.581543,61.5195313,56.2895508,63.7714844,56.2895508z M63.7714844,50.1748047  c1.4257813,0,2.5849609,1.0351563,2.5849609,2.3076172c0,1.2719727-1.1591797,2.3071289-2.5849609,2.3071289  c-1.4248047,0-2.5839844-1.0351563-2.5839844-2.3071289C61.1875,51.2099609,62.3466797,50.1748047,63.7714844,50.1748047z"/>
    <path d="M53.9775391,60.8540039c0.4140625,0,0.75-0.3359375,0.75-0.75V49.4907227c0-0.4140625-0.3359375-0.75-0.75-0.75  s-0.75,0.3359375-0.75,0.75v10.6132813C53.2275391,60.5180664,53.5634766,60.8540039,53.9775391,60.8540039z"/>
    <path d="M58.3046875,60.8540039c0.4140625,0,0.75-0.3359375,0.75-0.75V49.4907227c0-0.4140625-0.3359375-0.75-0.75-0.75  s-0.75,0.3359375-0.75,0.75v10.6132813C57.5546875,60.5180664,57.890625,60.8540039,58.3046875,60.8540039z"/>
    <path d="M49.2744141,60.8540039c0.4140625,0,0.75-0.3359375,0.75-0.75V49.4907227c0-0.4140625-0.3359375-0.75-0.75-0.75  s-0.75,0.3359375-0.75,0.75v10.6132813C48.5244141,60.5180664,48.8603516,60.8540039,49.2744141,60.8540039z"/>
    <path d="M24.5566406,36.4707031c2.4804688,0,4.4980469-2.0180664,4.4980469-4.4985352s-2.0175781-4.4980469-4.4980469-4.4980469  s-4.4980469,2.0175781-4.4980469,4.4980469S22.0761719,36.4707031,24.5566406,36.4707031z M24.5566406,28.9741211  c1.6533203,0,2.9980469,1.3447266,2.9980469,2.9980469s-1.3447266,2.9985352-2.9980469,2.9985352  s-2.9980469-1.3452148-2.9980469-2.9985352S22.9033203,28.9741211,24.5566406,28.9741211z"/>
    <path d="M56.4990234,27.6557617c1.2207031,0,2.3632813-0.4804688,3.2167969-1.3530273  c1.734375-1.7734375,1.7021484-4.6269531-0.0712891-6.3613281C58.7988281,19.1147461,57.6826172,18.6591797,56.5,18.6591797  c-1.2216797,0-2.3632813,0.4804688-3.2167969,1.3530273c-0.8398438,0.8588867-1.2949219,1.9941406-1.2822266,3.1953125  c0.0136719,1.2016602,0.4941406,2.3261719,1.3535156,3.1660156C54.1992188,27.2001953,55.3164063,27.6557617,56.4990234,27.6557617z   M54.3554688,21.0610352c0.5683594-0.581543,1.3300781-0.9018555,2.1445313-0.9018555  c0.7880859,0,1.5322266,0.3032227,2.0957031,0.8544922c1.1826172,1.15625,1.2041016,3.0581055,0.0478516,4.2402344  c-0.5693359,0.581543-1.3310547,0.9018555-2.1445313,0.9018555c-0.7880859,0-1.5322266-0.3032227-2.0957031-0.8544922  c-0.5732422-0.5600586-0.8935547-1.3095703-0.9023438-2.1103516S53.7958984,21.6337891,54.3554688,21.0610352z"/>
    <path d="M86.3876953,79.8408203h-7.0632935c1.0238647-0.9085693,1.65802-2.1546631,1.65802-3.5288086V63.1738281  c0-2.2294922-1.6337891-4.1630859-4.0654297-4.8110352c-0.022644-0.0061035-0.0446777-0.0003052-0.0673828-0.0042114v-0.7052612  c0-0.3310547-0.2167969-0.6230469-0.5341797-0.7182617l-4.5986328-1.3798828  c0.0050049-1.1094971-0.0767212-3.574707-0.7319336-5.9345703h2.9946289c0.4140625,0,0.75-0.3359375,0.75-0.75v-5.4941406  c0-0.4140625-0.3359375-0.75-0.75-0.75h-4.2412109c-0.1237183,0-0.2354736,0.0372314-0.3383789,0.090332l-0.559082-5.6992188  c-0.0400391-0.4121094-0.4091797-0.7114258-0.8193359-0.6733398c-0.4121094,0.0405273-0.7138672,0.4077148-0.6728516,0.8198242  l0.7662964,7.8109741c-0.7006836-0.4794922-1.5271606-0.7969971-2.5250854-0.8510132h-9.8336182l2.0074463-3.4951172  c0.2060547-0.359375,0.0820313-0.8173828-0.2763672-1.0239258c-0.0507202-0.0288696-0.1055298-0.0366211-0.1589355-0.0527954  l2.8190918-1.6488647c0.1171875-0.0688477,0.2138672-0.168457,0.2792969-0.2875977l2.7089844-4.9541016l9.3222656,4.1411133  l-2.2744141,4.7241211c-0.1796875,0.3730469-0.0224609,0.8212891,0.3505859,1.0009766  c0.3740234,0.1791992,0.8222656,0.0219727,1.0009766-0.3505859l2.609375-5.4208984  c0.0878906-0.1826172,0.0986328-0.3935547,0.0283203-0.5839844s-0.2138672-0.3442383-0.3994141-0.4267578l-10.6601563-4.7353516  c-0.3544922-0.1582031-0.7753906-0.0170898-0.9628906,0.3256836l-2.9404297,5.3774414l-5.1757813,3.0273438  c-0.71875-0.1621094-1.0400391-0.3945313-1.0976563-0.5698242c-0.0742188-0.2226563,0.1513672-0.6337891,0.3642578-0.8867188  l4.3349609-2.6020508c0.1259766-0.0751953,0.2265625-0.1860352,0.2900391-0.3178711l2.6113281-5.4272461l2.9189453-5.4912109  c0.0512695-0.0258789,0.2366333-0.0864258,0.6178589-0.0515747c0.0090942,0.0006714,0.0165405,0.0057983,0.0256958,0.0061646  l0.0856323,0.0031128c0.4611816,0.0614014,1.1760254,0.2579956,2.2532349,0.7717896l10.8027344,6.8432617  c0.0927734,0.050293,2.25,1.2402344,2.7138672,4.0649414l-2.5234375,12.6401367  c-0.0136719,0.0673828-0.0175781,0.1362305-0.0126953,0.2045898l0.7080078,9.1831055  c0.0302734,0.3935547,0.359375,0.6923828,0.7470703,0.6923828c0.0195313,0,0.0390625-0.0004883,0.0585938-0.0024414  c0.4130859-0.0317383,0.7216797-0.3920898,0.6904297-0.8051758l-0.7001953-9.0800781l2.5292969-12.6689453  c0.0166016-0.0839844,0.0195313-0.1699219,0.0068359-0.2539063c-0.5332031-3.6923828-3.3955078-5.2368164-3.4648438-5.2700195  l-4.6849976-2.9664307l-0.9487915-4.0076904c-0.0771484-0.3286133-0.3652344-0.5644531-0.7021484-0.5766602l-7.4466553-0.2689209  c-0.512146-0.050354-0.9498291-0.0033569-1.3121338,0.1473389c-0.4853516,0.2026367-0.6933594,0.5273438-0.7734375,0.699707  l-2.9267578,5.5092773l-1.7255859,3.5858154c-0.0336914-0.0046387-0.0636597-0.0198975-0.0986328-0.0198975h-8.1005859H30.8115234  c-0.3769531,0-0.6943359,0.2792969-0.7431641,0.6523438l-0.3085938,2.3505859  c-0.0546875,0.4106445,0.234375,0.7875977,0.6455078,0.8413086c0.0332031,0.0043945,0.0664063,0.0063477,0.0986328,0.0063477  c0.3710938,0,0.6933594-0.2749023,0.7421875-0.6523438l0.2236328-1.6982422h17.8046875h7.4869995l-0.0895386,0.1860352  l-3.4207764,2.0531616c-0.0669556-0.1009521-0.1500854-0.1918335-0.2647705-0.2523804l-1.6582031-0.8754883  c-0.3623047-0.1899414-0.8046875-0.0581055-1.0039063,0.2939453l-2.5878906,4.5786133  C47.5371094,40.6621094,47.6542969,41.109375,48,41.3193359l4.6118774,2.8046875h-3.3374634l-5.8461914,0.0003662  l0.105957-0.0340576c0.1923828-0.0615234,0.3515625-0.1987305,0.4414063-0.3793945  c0.0908203-0.1811523,0.1035156-0.390625,0.0371094-0.581543l-2.4248047-6.9453125  c-0.1337891-0.3828125-0.5478516-0.5913086-0.9326172-0.46875l-5.0185547,1.574707  c-0.3876953,0.121582-0.6074219,0.5292969-0.4970703,0.9199219l0.3024292,1.0682983l-2.8883667,0.7554321l-5.5498047-1.8740234  l-5.9570313-1.7504883c-0.1787109-0.0634766-0.5566406-0.1411133-1.0410156,0.0634766  c-0.9208984,0.3911133-1.7060547,1.5751953-2.4228516,3.7050781l-2.6464844,12.4516602  c-0.0068359,0.0332031-0.0117188,0.0668945-0.0146484,0.1005859c-0.0087891,0.125-0.2099609,3.0610352,1.0341797,4.9916992  l0.8154297,1.7490234c0.1269531,0.2729492,0.3974609,0.4331055,0.6806641,0.4331055  c0.1054688,0,0.2138672-0.0224609,0.3154297-0.0703125c0.3759766-0.1748047,0.5380859-0.6210938,0.3632813-0.996582  l-0.8378906-1.7973633c-0.015625-0.0336914-0.0341797-0.0664063-0.0546875-0.0976563  c-0.9199219-1.3881836-0.8408203-3.7011719-0.8232422-4.0561523l2.6113281-12.3115234  c0.796875-2.3481445,1.46875-2.6860352,1.5878906-2.7285156l5.9375,1.7441406l5.734375,1.9365234  c0.1396484,0.0473633,0.2890625,0.0517578,0.4296875,0.0151367l4.890625-1.2788086  c0.3330078,0.0244141,0.7822266,0.1503906,0.890625,0.3588867c0.0839844,0.1635742,0.0253906,0.5556641-0.3613281,1.1831055  l-5.7822266,1.5839844l-5.9013672-1.6582031c-0.3818359-0.1054688-0.7714844,0.0961914-0.9072266,0.4633789l-3.7998047,10.3325195  c-0.0869141,0.2363281-0.0488281,0.5009766,0.1005859,0.7041016l2.3070068,3.1286621l-1.9193115,0.5759277  c-0.3173828,0.0952148-0.5341797,0.387207-0.5341797,0.7182617v0.7055664  c-0.0227051,0.0037842-0.0446167-0.0020142-0.0673828,0.0039063c-0.6015625,0.1606445-1.1660156,0.4052734-1.6777344,0.7275391  c-0.000061,0.000061-0.0001221,0.0001221-0.0001831,0.0001831c-0.0002441,0.0001221-0.0005493,0.0001221-0.0007935,0.0003052  c-1.4941406,0.9423828-2.3867188,2.46875-2.3867188,4.0830078v6.3945313v6.7436523  c0,1.3741455,0.6341553,2.6202393,1.65802,3.5288086h-3.5691528c-0.4140625,0-0.75,0.3359375-0.75,0.75s0.3359375,0.75,0.75,0.75  h70.7324219c0.4140625,0,0.75-0.3359375,0.75-0.75S86.8017578,79.8408203,86.3876953,79.8408203z M71.4961548,26.6087646  l-3.2510986-2.0585938l2.7871704,0.100708L71.4961548,26.6087646z M51.2714844,37.1035156l0.7452393,0.3934326  c-0.3249512,0.4393921-0.7905884,1.2650146-0.506958,2.1363525c0.2714844,0.8364258,1.1210938,1.387207,2.5253906,1.637207  c0.1757813,0.0302734,0.3554688-0.0009766,0.5107422-0.0908203l1.7642212-1.0319214l-1.9028931,3.3126831l-5.0068359-3.0449219  L51.2714844,37.1035156z M79.4824219,63.1738281v13.1381836c0,1.9458008-1.9042969,3.5288086-4.2441406,3.5288086  s-4.2441406-1.5830078-4.2441406-3.5288086v-6.4142456c3.0586548-0.1532593,5.0921631-0.2722778,5.1494141-0.2756958  c0.3964844-0.0234375,0.7060547-0.3515625,0.7060547-0.7485352v-8.9524536  C78.4334106,60.4634399,79.4824219,61.7307739,79.4824219,63.1738281z M49.2744141,69.0893555  c-9.0742188,0-22.8232422-0.7412109-26.0751953-0.9243164v-3.4487305h52.1503906v3.4487305  C72.0976563,68.3481445,58.3486328,69.0893555,49.2744141,69.0893555z M69.7382813,44.1264648h3.4912109v3.9941406h-2.7479248  c-0.1924438-0.4648438-0.4247437-0.9021606-0.6807861-1.3178101l-0.2666016-2.7175903  C69.6004028,44.1043701,69.6658936,44.1264648,69.7382813,44.1264648z M38.8076172,43.1757813  c0.171875-0.046875,0.3212891-0.1538086,0.421875-0.3007813c0.8027344-1.1791992,1.0029297-2.171875,0.5957031-2.9506836  c-0.5878906-1.1206055-2.1201172-1.1645508-2.2929688-1.1660156c-0.0498047,0.0053711-0.1318359,0.0083008-0.1953125,0.0244141  l-0.4435425,0.1160278l-0.1121216-0.395813l3.6298828-1.1386719l1.9316406,5.5332031l-3.8182983,1.2272339l-3.1817627,0.0001831  L38.8076172,43.1757813z M23.2929688,52.6650391l3.4208984-9.3027344l4.3528442,1.2231445  c-1.4268188,0.6728516-2.3790894,2.0031738-3.0090332,3.5351563h-1.194397c-0.4140625,0-0.75,0.3359375-0.75,0.75  s0.3359375,0.75,0.75,0.75h0.694519c-0.6505737,2.3598022-0.7312012,4.8250732-0.725769,5.9345703l-1.1531372,0.3460083  L23.2929688,52.6650391z M26.8691406,57.1102905v1.4707642c0,0.4140625,0.3359375,0.75,0.75,0.75s0.75-0.3359375,0.75-0.75  v-2.4711914c0-0.052124-0.0195313-0.0978394-0.0296631-0.1469727c-0.0266724-1.102417-0.0999146-10.0813599,4.6195068-10.3388672  h16.3154297l16.2744141-0.0009766c1.2553711,0.0681763,2.1741333,0.7442017,2.8466797,1.7219849  c0.0152588,0.0321655,0.0371704,0.0582275,0.0565796,0.0875854c1.9676514,2.9743652,1.756897,8.5684814,1.7539673,8.644043  c-0.0008545,0.019165,0.0062256,0.0366211,0.0068359,0.055542v2.4488525c0,0.4140625,0.3359375,0.75,0.75,0.75  s0.75-0.3359375,0.75-0.75v-1.4608154l3.6367188,1.0911865v5.0048828H23.1992188v-5.0048828L26.8691406,57.1102905z   M19.0664063,76.3120117v-6.7436523v-6.3945313c0-1.112793,0.6152344-2.1381836,1.6875-2.8144531l0.000061-0.000061  c0.2913818-0.1833496,0.6120605-0.3217773,0.9452515-0.4365234v8.9507446c0,0.3969727,0.3095703,0.7250977,0.7060547,0.7485352  c0.057251,0.003418,2.0907593,0.1224365,5.1494141,0.2756958v6.4142456c0,1.9458008-1.9042969,3.5288086-4.2441406,3.5288086  S19.0664063,78.2578125,19.0664063,76.3120117z M27.3966675,79.8408203c1.0238647-0.9085693,1.65802-2.1546631,1.65802-3.5288086  v-6.3405151c5.7376709,0.2770386,14.0491333,0.6178589,20.2197266,0.6178589s14.4820557-0.3408203,20.2197266-0.6178589v6.3405151  c0,1.3741455,0.6341553,2.6202393,1.65802,3.5288086H27.3966675z"/>
  </g>
</svg>