<svg 
  xmlns="http://www.w3.org/2000/svg" 
  data-name="Layer 1" 
  viewBox="0 0 100 100" 
  x="0px" 
  y="0px"
>
  <path d="m20.62,58.24l3.61-.82c.81-.18,1.31-.99,1.13-1.8-.18-.81-.98-1.31-1.8-1.13l-3.62.83c-.15-.84-.25-1.69-.33-2.54l1.89-.14c.28-.02.48-.26.46-.54-.02-.28-.27-.48-.54-.46l-1.91.14c-.03-.59-.05-1.19-.05-1.78s.02-1.19.06-1.78l1.9.14s.03,0,.04,0c.26,0,.48-.2.5-.46.02-.28-.19-.52-.46-.54l-1.9-.14c.11-1.2.28-2.37.53-3.53l3.66.83s.08.01.11.01c.23,0,.43-.16.49-.39.06-.27-.11-.54-.38-.6l-3.65-.83c.29-1.16.64-2.3,1.05-3.41l1.78.7c.06.02.12.03.18.03.2,0,.39-.12.47-.32.1-.26-.03-.55-.28-.65l-1.78-.7c.46-1.1.97-2.17,1.55-3.21l1.65.95c.08.05.17.07.25.07.17,0,.34-.09.43-.25.14-.24.06-.54-.18-.68l-1.65-.95c.61-1.02,1.29-2,2.01-2.94l2.92,2.33c.09.07.2.11.31.11.15,0,.29-.06.39-.19.17-.22.14-.53-.08-.7l-2.92-2.33c.76-.92,1.57-1.78,2.43-2.6l1.28,1.38c.1.11.23.16.37.16.12,0,.24-.04.34-.13.2-.19.21-.5.03-.71l-1.29-1.39c.88-.79,1.81-1.53,2.79-2.22l1.07,1.56c.1.14.25.22.41.22.1,0,.2-.03.28-.09.23-.16.29-.47.13-.69l-1.07-1.57c.99-.65,2.02-1.25,3.08-1.78l1.62,3.37c.09.18.26.28.45.28.07,0,.15-.02.22-.05.25-.12.35-.42.23-.67l-1.62-3.37c1.07-.5,2.18-.93,3.32-1.31l.56,1.82c.07.21.26.35.48.35.05,0,.1,0,.15-.02.26-.08.41-.36.33-.63l-.56-1.82c1.13-.33,2.29-.6,3.47-.79l.28,1.89c.04.25.25.43.49.43.03,0,.05,0,.08,0,.27-.04.46-.3.42-.57l-.28-1.88c.84-.11,1.69-.2,2.55-.24v3.72c0,.83.67,1.5,1.5,1.5s1.5-.67,1.5-1.5v-3.72c.86.04,1.71.13,2.55.24l-.28,1.88c-.04.27.15.53.42.57.03,0,.05,0,.08,0,.24,0,.46-.18.49-.43l.28-1.89c1.18.2,2.34.46,3.47.79l-.56,1.82c-.08.26.07.54.33.63.05.02.1.02.15.02.21,0,.41-.14.48-.35l.56-1.82c1.14.37,2.24.81,3.32,1.31l-1.62,3.37c-.12.25-.02.55.23.67.07.03.14.05.22.05.19,0,.36-.1.45-.28l1.62-3.37c1.06.54,2.09,1.13,3.08,1.78l-1.07,1.57c-.16.23-.1.54.13.69.09.06.18.09.28.09.16,0,.32-.08.41-.22l1.07-1.56c.97.69,1.9,1.43,2.79,2.22l-1.29,1.39c-.19.2-.18.52.03.71.1.09.22.13.34.13.13,0,.27-.05.37-.16l1.29-1.39c.86.82,1.67,1.69,2.43,2.6l-2.92,2.33c-.22.17-.25.49-.08.7.1.12.24.19.39.19.11,0,.22-.04.31-.11l2.92-2.33c.73.94,1.4,1.92,2.01,2.94l-1.65.95c-.24.14-.32.44-.18.68.09.16.26.25.43.25.08,0,.17-.02.25-.07l1.65-.95c.58,1.03,1.1,2.1,1.55,3.21l-1.78.7c-.26.1-.38.39-.28.65.08.2.27.32.47.32.06,0,.12-.01.18-.03l1.78-.7c.41,1.11.76,2.24,1.05,3.41l-3.65.83c-.27.06-.44.33-.38.6.05.23.26.39.49.39.04,0,.07,0,.11-.01l3.66-.83c.24,1.15.42,2.33.53,3.53l-1.9.14c-.28.02-.48.26-.46.54.02.26.24.46.5.46.01,0,.03,0,.04,0l1.9-.14c.03.59.06,1.18.06,1.78s-.02,1.19-.05,1.78l-1.91-.14c-.27-.02-.51.19-.54.46-.02.28.19.52.46.54l1.89.14c-.08.85-.18,1.7-.33,2.54l-3.62-.83c-.81-.18-1.61.32-1.8,1.13-.18.81.32,1.61,1.13,1.8l3.61.83c-.56,2.01-1.31,3.96-2.27,5.8-.38.74-.09,1.64.64,2.02.73.38,1.64.1,2.02-.64,2.46-4.73,3.75-10.07,3.75-15.43,0-18.49-15.04-33.52-33.52-33.52S16.48,31.51,16.48,50c0,5.36,1.3,10.7,3.75,15.43.27.51.79.81,1.33.81.23,0,.47-.05.69-.17.74-.38,1.02-1.29.64-2.02-.96-1.85-1.71-3.8-2.27-5.8Z"/>
  <path d="m50,90c22.06,0,40-17.94,40-40S72.06,10,50,10,10,27.94,10,50s17.94,40,40,40Zm0-77c20.4,0,37,16.6,37,37s-16.6,37-37,37S13,70.4,13,50,29.6,13,50,13Z"/>
  <path d="m64.45,35.33l-12.65,10.53c-1.65-.72-3.64-.41-4.99.94-1.76,1.76-1.76,4.63,0,6.39,1.76,1.76,4.63,1.76,6.39,0,1.35-1.35,1.66-3.34.94-4.99,3.93-4.72,10.53-12.65,10.53-12.65.13-.14-.09-.35-.22-.22Z"/>
  <path d="m59.09,60.35h0s0-.01,0-.01l-1.12-1.12c-.16-.16-.42-.16-.58,0-.16.16-.16.42,0,.58l.84.84-.45.45c-.22.22-.35.52-.35.84v.65c0,.79.42,1.53,1.11,1.92l.87.5v5.39c0,.44-.36.8-.8.8h-.17c-.44,0-.8-.36-.8-.8,0-.89-.73-1.62-1.62-1.62h-.63v-9.47c0-.84-.68-1.52-1.52-1.52h-7.72c-.84,0-1.52.68-1.52,1.52v13.14h-.15c-.68,0-1.23.55-1.23,1.23v1.47c0,.23.18.41.41.41h12.72c.23,0,.41-.18.41-.41v-1.47c0-.68-.55-1.23-1.23-1.23h-.15v-2.86h.63c.44,0,.8.36.8.8,0,.89.73,1.62,1.62,1.62h.17c.89,0,1.62-.73,1.62-1.62v-8.74c0-.11-.04-.21-.12-.29l-1-1Zm-5.53,3.94c0,.17-.13.3-.3.3h-6.56c-.17,0-.3-.13-.3-.3v-4.31c0-.17.13-.3.3-.3h6.56c.17,0,.3.13.3.3v4.31Z"/>  
</svg>